# xmcd
#
# Track frame offsets: 
#        180
#        15698
#        31172
#
# Disc length: 620 seconds
#
# Revision: 7
# Processed by: cddbd v1.5.2PL0 Copyright (c) Steve Scherf et al.
# Submitted via: ExactAudioCopyFreeDBPlugin 1.0
#
DISCID=17026a03
DTITLE=A Tribe Called Quest - Find A Way [CDS)
DYEAR=1998
DGENRE=Hip-Hop
TTITLE0=Find A Way (Radio Version)
TTITLE1=Steppin' It Up (with Busta Rhymes and Redman) (Radio Version)
TTITLE2=Find A Way (Instrumental)
EXTD=
EXTT0=
EXTT1=
EXTT2=
PLAYORDER=
